# xmcd
#
# Track frame offsets:
#	182
#	16595
#	34457
#	51370
#	67545
#	112157
#
# Disc length: 2155 seconds
#
# Revision: 3
# Processed by: cddbd v1.5.2PL0 Copyright (c) Steve Scherf et al.
# Submitted via: EasyCDDAExtractor 2010.6.0.0
#
DISCID=47086906
DTITLE=Giorgio Moroder Project feat. Gloria Gaynor - Last Night
DYEAR=2000
DGENRE=Dance
TTITLE0=Last Night (T and F Crushed Mendoza Radio Mix)
TTITLE1=Last Night (Steve Anderson Radio Mix)
TTITLE2=Last Night (Dave Sears Radio Mix)
TTITLE3=Last Night  7th District Disco Radio Mix)
TTITLE4=Last Night (Eric's Hysteric Future Classic Mix)
TTITLE5=Last Night (Steve Anderson Mardi Gras Mix)
EXTD=YEAR: 2000
EXTT0=
EXTT1=
EXTT2=
EXTT3=
EXTT4=
EXTT5=
PLAYORDER=
